# xmcd
#
# Track frame offsets:
#	150
#	9252
#	24647
#	35921
#	48852
#	62353
#	74129
#	84577
#	95398
#	104577
#	113437
#	122390
#	133983
#	147106
#	158541
#	171533
#	183429
#	195359
#	205143
#	218366
#	230125
#	239836
#	252065
#	263226
#	274256
#	285744
#	296781
#	308352
#	319296
#	331465
#
# Disc length: 4567 seconds
# Revision: 0
# Processed by: cddbd v1.5.2PL0 Copyright (c) Steve Scherf et al.
# Submitted via: dBpowerAMP V12.0
#
DISCID=bc11d51e
DTITLE=Various Artist - The R&B Singles Collection Volume 1
DYEAR=1961
DGENRE=Rhythm and Blues
TTITLE0=Patience Valentine - If You Don't Come (You Better Call)
TTITLE1=Barbara Dane - I'm On My Way
TTITLE2=Prince Conley - I'm Going Home
TTITLE3=Fabulous Playboys - Honkey Tonk Woman
TTITLE4=Etta James - Seven Day Fool
TTITLE5=Tiny Topsy - Just A Little Bit
TTITLE6=Buddy Ace - This Little Love Of Mine
TTITLE7=James Booker - Gonzo
TTITLE8=Betty O'Brien - She'll Be Gone
TTITLE9=Maximilian - The Snake
TTITLE10=Danny Owens - You're A Little Too Late
TTITLE11=Benny Spellman - Ammerette
TTITLE12=Big Daddy Rogers - I'm A Big Man
TTITLE13=Al Tamms - Come Here You
TTITLE14=Joe Tex - I Wanna Be Free
TTITLE15=Joe Tex - Old Time Lover
TTITLE16=Eskew Reeder - Undivided Love
TTITLE17=Benny Spellman - Fortune Teller
TTITLE18=Big Maybelle - I've Got A Feeling
TTITLE19=Terry Timmons - Got Nobody To Love
TTITLE20=Little Arthur Mathews with the Johnny Otis Band - I'm Gonna Whale On You
TTITLE21=Willie Wright and His Sparklers - I'm Gonna Leave You Baby, And I'm Goin' Away To Stay
TTITLE22=Billy Hambric - Flaming Mamie
TTITLE23=The Upsetters - Jaywalking
TTITLE24=Sherri Taylor - He's The One That Rings My Bell
TTITLE25=Jo Ann Henderson - Baby Please Don't Go
TTITLE26=Billy "The Kid" Emerson - I Never Get Enough
TTITLE27=Piney Brown and his Blues Toppers - Sugar In My Tea (Cream In My Coffee)
TTITLE28=Kurt Harris - Emperor Of My Baby's Heart
TTITLE29=Johnny Love - Chills And Fever
EXTD=
EXTT0=
EXTT1=
EXTT2=
EXTT3=
EXTT4=
EXTT5=
EXTT6=
EXTT7=
EXTT8=
EXTT9=
EXTT10=
EXTT11=
EXTT12=
EXTT13=
EXTT14=
EXTT15=
EXTT16=
EXTT17=
EXTT18=
EXTT19=
EXTT20=
EXTT21=
EXTT22=
EXTT23=
EXTT24=
EXTT25=
EXTT26=
EXTT27=
EXTT28=
EXTT29=
PLAYORDER=
